<svg width="102" height="41" viewBox="0 0 102 41" fill="none" xmlns="http://www.w3.org/2000/svg">
<mask id="mask0_4042_32589" style="mask-type:luminance" maskUnits="userSpaceOnUse" x="0" y="17" width="48" height="24">
<rect y="17.6377" width="47.8125" height="23.3626" fill="white"/>
</mask>
<g mask="url(#mask0_4042_32589)">
<mask id="mask1_4042_32589" style="mask-type:luminance" maskUnits="userSpaceOnUse" x="-1707" y="-674" width="1922" height="975">
<rect x="-1706.45" y="-673.965" width="1920.47" height="974.588" fill="white"/>
</mask>
<g mask="url(#mask1_4042_32589)">
<mask id="mask2_4042_32589" style="mask-type:luminance" maskUnits="userSpaceOnUse" x="0" y="16" width="49" height="26">
<rect y="16.6064" width="48.9509" height="25.195" fill="white"/>
</mask>
<g mask="url(#mask2_4042_32589)">
<mask id="mask3_4042_32589" style="mask-type:luminance" maskUnits="userSpaceOnUse" x="0" y="17" width="48" height="24">
<path fill-rule="evenodd" clip-rule="evenodd" d="M2.50781 26.7997C2.39397 27.4869 2.50781 28.9757 2.84933 29.7773C3.41853 31.1516 4.55692 31.8387 6.03683 31.8387C7.74442 31.8387 8.99665 31.2661 9.79353 30.6935L10.135 32.7549C9.11049 33.442 7.4029 34.0147 5.46763 34.0147C1.71094 34.0147 0.117188 31.1516 0.117188 27.7159C0.117188 22.906 3.30469 17.6379 7.85826 17.6379C10.5904 17.6379 12.0703 19.4703 12.0703 21.6462C11.8426 25.769 7.74442 26.9143 2.50781 26.7997ZM7.40179 19.6998C5.125 19.6998 3.41741 22.2193 2.73438 24.7388C6.49107 24.7388 9.56473 24.1662 9.56473 21.7612C9.56473 20.3869 8.65402 19.6998 7.40179 19.6998ZM23.9074 26.4559C23.452 29.2045 23.2243 31.953 23.3382 33.7854H21.0614C21.0614 32.8692 21.1752 31.3804 21.4029 29.6626H21.2891C19.6953 32.8692 17.76 34.129 15.8248 34.129C13.3203 34.129 11.7266 31.953 11.7266 28.8609C11.7266 23.3638 15.3694 17.6377 21.5167 17.6377C22.8828 17.6377 24.3627 17.8667 25.2734 18.2103L23.9074 26.4559ZM20.9509 19.6998C17.308 19.6998 14.3482 23.9371 14.2344 28.289C14.2344 30.0068 14.8036 31.7247 16.625 31.7247C18.6741 31.7247 21.0647 28.7471 21.7478 24.6243L22.5446 19.8143C22.317 19.8143 21.7478 19.6998 20.9509 19.6998ZM34.269 20.3867C33.8136 20.0431 32.9029 19.6995 31.7645 19.6995C30.2846 19.6995 29.26 20.7302 29.26 22.1045C29.26 23.2497 29.9431 23.9369 31.1953 24.7385C32.7891 25.7692 33.8136 27.1435 33.8136 28.8613C33.8136 32.1825 31.423 34.0149 28.3493 34.0149C26.8694 34.0149 25.5033 33.4422 24.8203 32.9842L25.5033 31.0373C26.1864 31.4954 27.4386 32.068 28.577 32.068C30.1708 32.068 31.3092 30.9227 31.3092 29.5485C31.3092 28.2887 30.8538 27.6016 29.3739 26.6854C27.7801 25.6547 26.8694 24.2804 26.8694 22.6771C26.8694 19.9286 29.0324 17.7526 31.9922 17.7526C33.2444 17.7526 34.3828 18.0962 34.952 18.5543L34.269 20.3867ZM42.5781 29.8915C41.0982 33.3272 39.6183 36.0757 37.683 38.1371C36.0893 39.9695 34.3817 40.6566 33.5848 40.8857L33.0156 38.5952C33.5848 38.3662 34.6094 37.9081 35.6339 37.1064C36.5446 36.3047 37.5692 35.045 38.3661 33.4417C38.4799 33.2126 38.4799 32.9836 38.4799 32.7545L35.6339 17.9811H38.1384L39.5045 26.4558C39.846 28.2882 39.9598 29.4334 40.1875 30.5786H40.3013C40.6429 29.5479 41.0982 28.5172 41.7813 26.6848L45.4241 17.8666H47.8147L42.5781 29.8915Z" fill="white"/>
</mask>
<g mask="url(#mask3_4042_32589)">
<mask id="mask4_4042_32589" style="mask-type:luminance" maskUnits="userSpaceOnUse" x="0" y="16" width="49" height="26">
<rect y="16.6064" width="48.9509" height="25.195" fill="white"/>
</mask>
<g mask="url(#mask4_4042_32589)">
<rect x="-5.69531" y="11.9111" width="59.1964" height="34.8149" fill="#252525"/>
</g>
</g>
</g>
</g>
</g>
<mask id="mask5_4042_32589" style="mask-type:luminance" maskUnits="userSpaceOnUse" x="36" y="9" width="33" height="29">
<path fill-rule="evenodd" clip-rule="evenodd" d="M42.2333 37.105C42.2333 37.105 48.6083 26.5689 49.7467 21.6444C50.885 16.7199 50.9989 14.0859 46.5592 13.6278C42.0056 13.1697 36.8828 13.6278 36.8828 13.6278C36.8828 13.6278 44.0547 9.04691 53.5033 9.39047C63.0658 9.61952 68.5301 13.6278 68.5301 13.6278C68.5301 13.6278 66.481 14.4295 63.1797 14.6585C59.8783 15.0021 58.6261 15.6892 58.8538 19.4685C59.0815 23.2477 60.4475 25.8817 60.4475 25.8817C60.4475 25.8817 55.0971 22.3315 51.7958 25.8817C48.4944 29.4319 47.8114 31.0353 45.8761 33.3257C44.0547 35.6162 42.2333 37.105 42.2333 37.105" fill="white"/>
</mask>
<g mask="url(#mask5_4042_32589)">
<mask id="mask6_4042_32589" style="mask-type:luminance" maskUnits="userSpaceOnUse" x="-1707" y="-674" width="1922" height="975">
<rect x="-1706.45" y="-673.967" width="1920.47" height="974.588" fill="white"/>
</mask>
<g mask="url(#mask6_4042_32589)">
<rect x="31.1953" y="3.54883" width="43.1451" height="39.2813" fill="#136BB5"/>
</g>
</g>
<mask id="mask7_4042_32589" style="mask-type:luminance" maskUnits="userSpaceOnUse" x="49" y="0" width="9" height="9">
<path fill-rule="evenodd" clip-rule="evenodd" d="M53.1607 0C55.4375 0 57.2589 1.83236 57.2589 4.12282C57.2589 6.41327 55.4375 8.24563 53.1607 8.24563C50.8839 8.24563 49.0625 6.41327 49.0625 4.12282C49.0625 1.83236 50.9978 0 53.1607 0" fill="white"/>
</mask>
<g mask="url(#mask7_4042_32589)">
<mask id="mask8_4042_32589" style="mask-type:luminance" maskUnits="userSpaceOnUse" x="-1707" y="-674" width="1922" height="975">
<rect x="-1706.45" y="-673.966" width="1920.47" height="974.588" fill="white"/>
</mask>
<g mask="url(#mask8_4042_32589)">
<rect x="43.375" y="-5.72656" width="19.5804" height="19.6979" fill="#F8A81B"/>
</g>
</g>
<mask id="mask9_4042_32589" style="mask-type:luminance" maskUnits="userSpaceOnUse" x="60" y="17" width="42" height="24">
<rect x="60.3359" y="17.6377" width="41.6652" height="23.3626" fill="white"/>
</mask>
<g mask="url(#mask9_4042_32589)">
<mask id="mask10_4042_32589" style="mask-type:luminance" maskUnits="userSpaceOnUse" x="-1707" y="-674" width="1922" height="975">
<rect x="-1706.45" y="-673.965" width="1920.47" height="974.588" fill="white"/>
</mask>
<g mask="url(#mask10_4042_32589)">
<mask id="mask11_4042_32589" style="mask-type:luminance" maskUnits="userSpaceOnUse" x="60" y="16" width="43" height="26">
<rect x="60.3359" y="16.6064" width="42.1205" height="25.195" fill="white"/>
</mask>
<g mask="url(#mask11_4042_32589)">
<mask id="mask12_4042_32589" style="mask-type:luminance" maskUnits="userSpaceOnUse" x="60" y="17" width="43" height="24">
<path fill-rule="evenodd" clip-rule="evenodd" d="M67.0603 34.0127C65.5804 34.0127 64.5558 33.6692 63.9866 33.3256H63.8728L62.7344 40.0824H60.3438L63.1897 23.4767C63.5312 21.5298 63.7589 19.4684 63.9866 17.8651H66.1496L65.6942 20.8426H65.808C67.0603 18.7812 68.9955 17.5215 70.817 17.5215C73.8906 17.5215 75.1429 20.27 75.1429 23.2476C75.2567 28.8592 71.7277 34.0127 67.0603 34.0127ZM70.0201 19.8126C68.0848 19.8126 65.6942 22.2175 65.0112 26.6839L64.3281 31.0358C64.8973 31.6084 65.9219 31.952 67.0603 31.952C70.1339 31.952 72.7522 27.6001 72.7522 23.4773C72.7522 21.7594 72.0692 19.8126 70.0201 19.8126ZM87.6652 26.4547C87.2098 29.2033 86.9821 31.9518 87.096 33.7842H84.8192C84.8192 32.868 84.933 31.3792 85.1607 29.6614H85.0469C83.4531 32.868 81.6317 34.1277 79.5826 34.1277C77.0781 34.1277 75.4844 31.9518 75.4844 28.8597C75.4844 23.3626 79.1272 17.6365 85.2746 17.6365C86.6406 17.6365 88.1205 17.8655 89.0312 18.2091L87.6652 26.4547ZM84.7042 19.6976C81.0614 19.6976 78.1016 23.935 78.1016 28.2868C78.1016 30.0047 78.6708 31.7225 80.4922 31.7225C82.5413 31.7225 84.9319 28.7449 85.615 24.6221L86.4118 19.8121C86.0703 19.8121 85.5011 19.6976 84.7042 19.6976ZM96.7734 29.8903C95.2935 33.3259 93.8136 36.0745 91.8783 38.1359C90.2846 39.9683 88.577 40.6554 87.7801 40.8844L87.2109 38.594C87.7801 38.3649 88.8047 37.9069 89.8292 37.1052C90.74 36.3035 91.7645 35.0438 92.5614 33.4405C92.6752 33.2114 92.6752 32.9824 92.6752 32.7533L89.8292 17.9799H92.3337L93.6998 26.4546C94.0413 28.287 94.1551 29.4322 94.3828 30.5774H94.4967C94.8382 29.5467 95.2935 28.516 95.9766 26.6836L99.5056 17.8654H102.01L96.7734 29.8903Z" fill="white"/>
</mask>
<g mask="url(#mask12_4042_32589)">
<mask id="mask13_4042_32589" style="mask-type:luminance" maskUnits="userSpaceOnUse" x="60" y="16" width="43" height="26">
<rect x="60.3438" y="16.6064" width="42.1205" height="25.195" fill="white"/>
</mask>
<g mask="url(#mask13_4042_32589)">
<rect x="54.6484" y="11.9111" width="53.0491" height="34.8149" fill="#252525"/>
</g>
</g>
</g>
</g>
</g>
</svg>
