<?xml version="1.0" encoding="iso-8859-1"?>
<!-- Uploaded to: SVG Repo, www.svgrepo.com, Generator: SVG Repo Mixer Tools -->
<svg height="800px" width="800px" version="1.1" id="Layer_1" xmlns="http://www.w3.org/2000/svg" xmlns:xlink="http://www.w3.org/1999/xlink" 
	 viewBox="0 0 512 512" xml:space="preserve">
<path style="fill:#E56C1E;" d="M492.896,322.866h-171.94c-10.551,0-19.104,8.554-19.104,19.104c0,10.551,8.554,19.104,19.104,19.104
	h171.94c10.551,0,19.104-8.554,19.104-19.104C512,331.419,503.446,322.866,492.896,322.866z"/>
<path style="fill:#F2BA57;" d="M210.149,341.97c0-10.551-8.554-19.104-19.104-19.104H19.104C8.554,322.866,0,331.419,0,341.97
	c0,10.551,8.554,19.104,19.104,19.104h171.94C201.596,361.075,210.149,352.521,210.149,341.97z"/>
<path style="fill:#91C0F1;" d="M336.138,453.362l-29.575-286.567c-1.005-9.739-9.211-17.143-19.004-17.143h-65.667
	c-9.792,0-17.999,7.404-19.004,17.143l-29.575,286.567c-0.555,5.38,1.195,10.743,4.818,14.758c3.622,4.016,8.778,6.308,14.186,6.308
	h124.816c5.408,0,10.563-2.293,14.186-6.308C334.942,464.105,336.692,458.742,336.138,453.362z"/>
<path style="fill:#D7EDF3;" d="M256,149.652h-34.107c-9.792,0-17.999,7.404-19.004,17.143l-29.575,286.567
	c-0.555,5.38,1.195,10.743,4.818,14.758c3.622,4.016,8.778,6.308,14.186,6.308h64.962L256,149.652z"/>
<path style="fill:#91C0F1;" d="M505.306,248.874L466.07,39.094c-1.69-9.04-9.582-15.532-18.778-15.532H64.708
	c-9.197,0-17.088,6.492-18.778,15.532L6.694,248.905c-1.044,5.585,0.451,11.544,4.081,15.915c3.63,4.371,9.016,7.1,14.698,7.1
	h461.055c5.682,0,11.068-2.743,14.698-7.115S506.35,254.459,505.306,248.874z"/>
<path style="fill:#0EABD9;" d="M505.306,248.874L466.07,39.094c-1.69-9.04-9.582-15.532-18.778-15.532H331.144V271.92h155.383
	c5.682,0,11.068-2.743,14.698-7.115S506.35,254.459,505.306,248.874z"/>
<path style="fill:#D7EDF3;" d="M180.856,23.562H64.708c-9.197,0-17.088,6.492-18.778,15.532L6.694,248.905
	c-1.044,5.585,0.451,11.544,4.081,15.915c3.63,4.371,9.016,7.1,14.698,7.1h155.383V23.562z"/>
<g>
	<path style="fill:#0EABD9;" d="M466.07,39.011c-1.69-9.04-9.582-15.449-18.778-15.449H64.708c-9.197,0-17.088,6.408-18.778,15.449
		l-12.846,68.611H478.92L466.07,39.011z"/>
	<path style="fill:#0EABD9;" d="M491.855,176.398H20.149l-13.455,72.23c-1.044,5.585,0.451,11.683,4.081,16.054
		s9.016,7.238,14.698,7.238h461.055c5.682,0,11.068-2.743,14.698-7.115s5.125-10.623,4.081-16.208L491.855,176.398z"/>
</g>
<path style="fill:#489B6D;" d="M424.119,436.219h-20.378c-10.551,0-19.104,8.554-19.104,19.104c0,10.551,8.554,19.104,19.104,19.104
	h20.378c10.551,0,19.104-8.554,19.104-19.104C443.224,444.773,434.67,436.219,424.119,436.219z"/>
<path style="fill:#91C0F1;" d="M64.708,23.562c-9.197,0-17.088,6.408-18.778,15.449l-12.846,68.611h147.772v-84.06H64.708z"/>
<path style="fill:#007AB7;" d="M478.919,107.622L466.07,39.011c-1.69-9.04-9.582-15.449-18.778-15.449H331.144v84.06H478.919z"/>
<path style="fill:#91C0F1;" d="M20.149,176.398l-13.455,72.23c-1.044,5.585,0.451,11.683,4.081,16.054s9.016,7.238,14.698,7.238
	h155.383v-95.522H20.149z"/>
<path style="fill:#007AB7;" d="M505.306,248.598l-13.451-72.2H331.144v95.522h155.383c5.682,0,11.068-2.743,14.698-7.115
	S506.35,254.183,505.306,248.598z"/>
<path style="fill:#489B6D;" d="M342.706,450.229H169.294c-10.551,0-19.104,8.554-19.104,19.104c0,10.551,8.554,19.104,19.104,19.104
	h173.413c10.551,0,19.104-8.554,19.104-19.104C361.811,458.783,353.257,450.229,342.706,450.229z"/>
<path style="fill:#A2CE86;" d="M257.274,450.229h-87.98c-10.551,0-19.104,8.554-19.104,19.104c0,10.551,8.554,19.104,19.104,19.104
	h87.98V450.229z"/>
</svg>