<?xml version="1.0" encoding="iso-8859-1"?>
<!-- Uploaded to: SVG Repo, www.svgrepo.com, Generator: SVG Repo Mixer Tools -->
<svg height="800px" width="800px" version="1.1" id="Layer_1" xmlns="http://www.w3.org/2000/svg" xmlns:xlink="http://www.w3.org/1999/xlink" 
	 viewBox="0 0 392.598 392.598" xml:space="preserve">
<path style="fill:#56ACE0;" d="M328.917,370.812c5.301-28.574,6.788-60.638,0.517-68.137c-7.111-8.469-49.131-20.945-85.851-28.186
	l-38.012,64.323c-1.939,3.297-5.495,5.301-9.374,5.301l0,0c-3.879,0-7.434-2.004-9.374-5.301l-38.529-64.129
	c-36.525,7.176-78.287,19.653-85.333,28.057c-6.271,7.499-4.784,39.564,0.517,68.137h265.438V370.812z"/>
<g>
	<polygon style="fill:#FFFFFF;" points="218.695,273.842 173.377,273.842 196.198,311.919 	"/>
	<path style="fill:#FFFFFF;" d="M122.242,142.675c-0.646,19.782,6.465,38.529,20.105,52.945
		c14.998,15.838,24.178,35.62,26.57,56.436h16.549v-112.42c0-6.012,4.848-10.925,10.925-10.925c6.077,0,10.925,4.848,10.925,10.925
		v112.485h16.549c2.457-20.622,11.83-40.469,26.958-56.889c12.671-13.705,19.717-31.547,19.717-50.23
		c0-42.02-35.297-76.024-77.64-74.02C154.371,72.792,123.406,104.275,122.242,142.675z"/>
</g>
<g>
	<path style="fill:#194F82;" d="M321.353,157.026h10.02c6.012,0,10.925-4.848,10.925-10.925c0-6.077-4.848-10.925-10.925-10.925
		h-10.02c-6.012,0-10.925,4.848-10.925,10.925C310.428,152.178,315.341,157.026,321.353,157.026z"/>
	<path style="fill:#194F82;" d="M61.086,157.026h10.02c6.012,0,10.925-4.848,10.925-10.925c0-6.077-4.848-10.925-10.925-10.925
		h-10.02c-6.012,0-10.925,4.848-10.925,10.925C50.161,152.178,55.074,157.026,61.086,157.026z"/>
	<path style="fill:#194F82;" d="M100.068,65.358c4.267,4.267,11.119,4.267,15.451,0c4.267-4.267,4.267-11.119,0-15.45l-7.111-7.111
		c-4.267-4.267-11.119-4.267-15.451,0c-4.267,4.267-4.267,11.119,0,15.451L100.068,65.358z"/>
	<path style="fill:#194F82;" d="M292.456,65.358l7.111-7.111c4.267-4.267,4.267-11.119,0-15.451c-4.267-4.267-11.119-4.267-15.451,0
		l-7.111,7.111c-4.267,4.267-4.267,11.119,0,15.45C281.272,69.624,288.19,69.624,292.456,65.358z"/>
	<path style="fill:#194F82;" d="M196.262,31.871c6.012,0,10.925-4.848,10.925-10.925v-10.02C207.187,4.913,202.339,0,196.262,0
		c-6.012,0-10.925,4.848-10.925,10.925v10.02C185.337,27.022,190.25,31.871,196.262,31.871z"/>
</g>
<path style="fill:#FFC10D;" d="M248.561,145.002c0-28.832-23.467-52.299-52.299-52.299c-0.84,0-1.681,0-2.521,0.065
	c-26.57,1.228-48.937,23.984-49.713,50.554c-0.388,13.899,4.655,27.216,14.158,37.301c12.541,13.317,21.721,28.897,27.216,45.576
	v-86.626c0-6.012,4.848-10.925,10.925-10.925c6.012,0,10.925,4.848,10.925,10.925v87.143c5.56-16.743,14.869-32.582,27.539-46.287
	C243.648,170.731,248.561,158.19,248.561,145.002z"/>
<path style="fill:#194F82;" d="M346.242,288.646c-15.192-18.295-78.352-31.806-100.525-36.073
	c2.263-15.386,9.438-30.19,20.945-42.602c16.485-17.778,25.471-40.792,25.471-64.97c0-54.432-45.511-98.263-100.461-95.806
	c-49.648,2.327-89.729,43.055-91.216,92.832c-0.776,25.6,8.404,49.907,25.988,68.525c11.184,11.895,18.23,26.57,20.493,42.02
	c-22.174,4.267-85.333,17.778-100.59,36.073c-17.002,20.493-6.012,78.093-2.263,95.354c1.099,5.042,5.56,8.598,10.667,8.598h283.216
	c5.107,0,9.568-3.556,10.667-8.598C352.254,366.869,363.244,309.139,346.242,288.646z M142.218,195.62
	c-13.511-14.352-20.622-33.164-20.105-52.945c1.164-38.4,32.129-69.947,70.465-71.693c42.343-2.004,77.64,32,77.64,74.02
	c0,18.683-6.982,36.461-19.717,50.23c-15.127,16.356-24.501,36.267-26.958,56.889h-16.549V139.636
	c0-6.012-4.848-10.925-10.925-10.925c-6.077,0-10.925,4.848-10.925,10.925v112.485h-16.549
	C166.46,231.24,157.216,211.523,142.218,195.62z M218.695,273.842l-22.497,38.077l-22.82-38.077H218.695z M328.917,370.812H63.608
	c-5.301-28.574-6.788-60.638-0.517-68.137c7.046-8.469,48.808-20.881,85.333-28.057l38.529,64.323
	c4.073,7.111,14.481,6.982,18.747-0.065l38.012-64.259c36.655,7.176,78.739,19.653,85.786,28.186
	C335.769,310.174,334.282,342.238,328.917,370.812z"/>
</svg>